<svg xmlns="http://www.w3.org/2000/svg" viewBox="0 0 64 64" width="64" height="64">
  <!-- 背景渐变 -->
  <defs>
    <radialGradient id="bgGradient" cx="50%" cy="30%" r="70%">
      <stop offset="0%" style="stop-color:#b91d47;stop-opacity:1" />
      <stop offset="100%" style="stop-color:#7a1529;stop-opacity:1" />
    </radialGradient>
    <filter id="shadow" x="-20%" y="-20%" width="140%" height="140%">
      <feDropShadow dx="1" dy="1" stdDeviation="1" flood-color="#000" flood-opacity="0.3"/>
    </filter>
  </defs>
  
  <!-- 背景圆形 -->
  <circle cx="32" cy="32" r="30" fill="url(#bgGradient)" stroke="#333333" stroke-width="2"/>
  
  <!-- 内部装饰圆环 -->
  <circle cx="32" cy="32" r="26" fill="none" stroke="#f5f5dc" stroke-width="0.8" opacity="0.2"/>
  
  <!-- "文" 字主体 - 更符合书法风格 -->
  <g fill="#f5f5dc" filter="url(#shadow)">
    <!-- 文字的顶部横线 - 起笔重，收笔轻 -->
    <path d="M 16 18 Q 18 16 20 17 L 44 17 Q 46 17 46 19 Q 46 20 44 20 L 20 20 Q 18 20 16 18 Z"/>
    
    <!-- 文字的中间点 -->
    <circle cx="32" cy="26" r="1.2"/>
    
    <!-- 文字的左撇 - 书法撇的形状 -->
    <path d="M 26 29 Q 24 30 22 33 Q 19 38 17 43 Q 16 45 16 46 Q 16 47 17 47 Q 18 47 19 46 Q 21 44 23 40 Q 26 35 28 31 Q 28 30 27 29 Q 26.5 29 26 29 Z"/>
    
    <!-- 文字的右捺 - 书法捺的形状 -->
    <path d="M 38 31 Q 39 32 41 35 Q 44 40 46 44 Q 47 46 48 47 Q 48 48 47 48 Q 46 48 45 47 Q 43 45 41 42 Q 38 37 36 32 Q 36 31 37 30 Q 37.5 30 38 31 Z"/>
    
    <!-- 文字的中间竖线 -->
    <path d="M 31 22 Q 32 22 33 22 L 33 40 Q 33 41 32 41 Q 31 41 31 40 L 31 22 Z"/>
    
    <!-- 文字底部的横线 -->
    <path d="M 20 43 Q 22 42 24 43 L 40 43 Q 42 43 42 44 Q 42 45 40 45 L 24 45 Q 22 45 20 43 Z"/>
  </g>
  
  <!-- 外边框装饰 -->
  <circle cx="32" cy="32" r="30" fill="none" stroke="#333333" stroke-width="2"/>
  
  <!-- 内部光晕效果 -->
  <circle cx="32" cy="32" r="22" fill="none" stroke="#f5f5dc" stroke-width="0.5" opacity="0.1"/>
</svg>